<svg xmlns="http://www.w3.org/2000/svg" xmlns:xlink="http://www.w3.org/1999/xlink" id="Capa_1" x="0px" y="0px" viewBox="0 0 510.914 510.914" style="enable-background:new 0 0 510.914 510.914;" xml:space="preserve" width="512" height="512"><g>	<path style="fill:none;stroke:#000000;stroke-width:14;stroke-linecap:round;stroke-linejoin:round;stroke-miterlimit:10;" d="&#10;&#9;&#9;M413.27,237.312v36.721h-48.856V15.299c0-6.989,8.123-10.837,13.531-6.409l12.474,10.213c14.463,11.842,22.85,29.548,22.85,48.241&#10;&#9;&#9;v134.968"></path>	<path style="fill:none;stroke:#000000;stroke-width:14;stroke-linecap:round;stroke-linejoin:round;stroke-miterlimit:10;" d="&#10;&#9;&#9;M97.644,219.137v54.896H146.5V15.299c0-6.989-8.123-10.837-13.531-6.409l-12.474,10.213&#10;&#9;&#9;c-14.463,11.842-22.851,29.548-22.851,48.241v116.793"></path>	<path style="fill:none;stroke:#000000;stroke-width:14;stroke-linecap:round;stroke-linejoin:round;stroke-miterlimit:10;" d="&#10;&#9;&#9;M206.987,274.033h-29.169V21.584c0-8.055,6.53-14.584,14.585-14.584l0,0c8.055,0,14.585,6.53,14.585,14.584V274.033z"></path>	<path style="fill:none;stroke:#000000;stroke-width:14;stroke-linecap:round;stroke-linejoin:round;stroke-miterlimit:10;" d="&#10;&#9;&#9;M268.36,274.033h-29.169V21.584c0-8.055,6.53-14.584,14.585-14.584h0c8.055,0,14.584,6.53,14.584,14.584V274.033z"></path>	<path style="fill:none;stroke:#000000;stroke-width:14;stroke-linecap:round;stroke-linejoin:round;stroke-miterlimit:10;" d="&#10;&#9;&#9;M329.733,274.033h-29.169V21.584c0-8.055,6.53-14.584,14.585-14.584h0c8.055,0,14.585,6.53,14.585,14.584V274.033z"></path>	<path style="fill:none;stroke:#000000;stroke-width:14;stroke-linecap:round;stroke-linejoin:round;stroke-miterlimit:10;" d="&#10;&#9;&#9;M384.386,421.794H126.528c-15.952,0-28.884-12.932-28.884-28.884V274.033H413.27V392.91&#10;&#9;&#9;C413.27,408.862,400.338,421.794,384.386,421.794z"></path>	<path style="fill:none;stroke:#000000;stroke-width:14;stroke-linecap:round;stroke-linejoin:round;stroke-miterlimit:10;" d="&#10;&#9;&#9;M370.931,421.794H139.983V342.96c0-12.214,9.901-22.115,22.115-22.115h186.718c12.214,0,22.115,9.901,22.115,22.115V421.794z"></path>	<path style="fill:none;stroke:#000000;stroke-width:14;stroke-linecap:round;stroke-linejoin:round;stroke-miterlimit:10;" d="&#10;&#9;&#9;M299.722,468.084v4.885c0,17.09-13.854,30.945-30.945,30.945h-26.641c-17.09,0-30.945-13.854-30.945-30.945v-7.094"></path>			<line style="fill:none;stroke:#000000;stroke-width:14;stroke-linecap:round;stroke-linejoin:round;stroke-miterlimit:10;" x1="212.494" y1="354.087" x2="298.42" y2="354.087"></line>			<line style="fill:none;stroke:#000000;stroke-width:14;stroke-linecap:round;stroke-linejoin:round;stroke-miterlimit:10;" x1="242.553" y1="384.25" x2="268.36" y2="384.25"></line>	<path style="fill:none;stroke:#000000;stroke-width:14;stroke-linecap:round;stroke-linejoin:round;stroke-miterlimit:10;" d="&#10;&#9;&#9;M365.605,463.065H144.367c-9.852,0-17.839-7.987-17.839-17.839v-23.433h256.916v23.433&#10;&#9;&#9;C383.444,455.079,375.457,463.065,365.605,463.065z"></path></g></svg>