<svg xmlns="http://www.w3.org/2000/svg" xmlns:xlink="http://www.w3.org/1999/xlink" id="Capa_1" x="0px" y="0px" viewBox="0 0 512 512" style="enable-background:new 0 0 512 512;" xml:space="preserve" width="512" height="512"><g>			<circle style="fill:none;stroke:#000000;stroke-width:15;stroke-linecap:round;stroke-linejoin:round;stroke-miterlimit:10;" cx="339.357" cy="320.403" r="23.211"></circle>			<line style="fill:none;stroke:#000000;stroke-width:15;stroke-linecap:round;stroke-linejoin:round;stroke-miterlimit:10;" x1="354.556" y1="302.869" x2="417.712" y2="239.712"></line>			<circle style="fill:none;stroke:#000000;stroke-width:15;stroke-linecap:round;stroke-linejoin:round;stroke-miterlimit:10;" cx="420.594" cy="320.403" r="23.211"></circle>			<line style="fill:none;stroke:#000000;stroke-width:15;stroke-linecap:round;stroke-linejoin:round;stroke-miterlimit:10;" x1="405.395" y1="302.869" x2="342.239" y2="239.712"></line>	<path style="fill:none;stroke:#000000;stroke-width:15;stroke-linecap:round;stroke-linejoin:round;stroke-miterlimit:10;" d="&#10;&#9;&#9;M73.846,485.513c-36.642,0-66.346-29.704-66.346-66.346V155.294h327.177"></path>	<path style="fill:none;stroke:#000000;stroke-width:15;stroke-linecap:round;stroke-linejoin:round;stroke-miterlimit:10;" d="&#10;&#9;&#9;M369.677,155.294H504.5v263.873c0,36.642-29.704,66.346-66.346,66.346h-328.75"></path>			<line style="fill:none;stroke:#000000;stroke-width:15;stroke-linecap:round;stroke-linejoin:round;stroke-miterlimit:10;" x1="149.572" y1="70.21" x2="117.878" y2="70.21"></line>			<line style="fill:none;stroke:#000000;stroke-width:15;stroke-linecap:round;stroke-linejoin:round;stroke-miterlimit:10;" x1="319.541" y1="70.21" x2="192.761" y2="70.21"></line>			<line style="fill:none;stroke:#000000;stroke-width:15;stroke-linecap:round;stroke-linejoin:round;stroke-miterlimit:10;" x1="396.862" y1="70.21" x2="363.078" y2="70.21"></line>	<path style="fill:none;stroke:#000000;stroke-width:15;stroke-linecap:round;stroke-linejoin:round;stroke-miterlimit:10;" d="&#10;&#9;&#9;M504.5,155.294v-34.401c0-27.991-22.691-50.682-50.682-50.682h-13.07"></path>	<path style="fill:none;stroke:#000000;stroke-width:15;stroke-linecap:round;stroke-linejoin:round;stroke-miterlimit:10;" d="&#10;&#9;&#9;M72.947,70.21H58.182C30.191,70.21,7.5,92.902,7.5,120.893v34.401h70.23"></path>	<path style="fill:none;stroke:#000000;stroke-width:15;stroke-linecap:round;stroke-linejoin:round;stroke-miterlimit:10;" d="&#10;&#9;&#9;M457.823,380.406H295.755c-6.235,0-11.29-5.055-11.29-11.29V207.048c0-6.235,5.055-11.29,11.29-11.29h162.068&#10;&#9;&#9;c6.235,0,11.29,5.055,11.29,11.29v162.068C469.113,375.351,464.058,380.406,457.823,380.406z"></path>	<path style="fill:none;stroke:#000000;stroke-width:15;stroke-linecap:round;stroke-linejoin:round;stroke-miterlimit:10;" d="&#10;&#9;&#9;M78.693,238.301H56.798c-6.235,0-11.29-5.055-11.29-11.29v-21.896c0-6.235,5.055-11.29,11.29-11.29h21.896&#10;&#9;&#9;c6.235,0,11.29,5.055,11.29,11.29v21.896C89.984,233.246,84.929,238.301,78.693,238.301z"></path>	<path style="fill:none;stroke:#000000;stroke-width:15;stroke-linecap:round;stroke-linejoin:round;stroke-miterlimit:10;" d="&#10;&#9;&#9;M155.894,238.301h-21.896c-6.235,0-11.29-5.055-11.29-11.29v-21.896c0-6.235,5.055-11.29,11.29-11.29h21.896&#10;&#9;&#9;c6.235,0,11.29,5.055,11.29,11.29v21.896C167.185,233.246,162.13,238.301,155.894,238.301z"></path>	<path style="fill:none;stroke:#000000;stroke-width:15;stroke-linecap:round;stroke-linejoin:round;stroke-miterlimit:10;" d="&#10;&#9;&#9;M233.096,238.301H211.2c-6.235,0-11.29-5.055-11.29-11.29v-21.896c0-6.235,5.055-11.29,11.29-11.29h21.896&#10;&#9;&#9;c6.235,0,11.29,5.055,11.29,11.29v21.896C244.386,233.246,239.331,238.301,233.096,238.301z"></path>	<path style="fill:none;stroke:#000000;stroke-width:15;stroke-linecap:round;stroke-linejoin:round;stroke-miterlimit:10;" d="&#10;&#9;&#9;M78.693,309.354H56.798c-6.235,0-11.29-5.055-11.29-11.29v-21.896c0-6.235,5.055-11.29,11.29-11.29h21.896&#10;&#9;&#9;c6.235,0,11.29,5.055,11.29,11.29v21.896C89.984,304.299,84.929,309.354,78.693,309.354z"></path>	<path style="fill:none;stroke:#000000;stroke-width:15;stroke-linecap:round;stroke-linejoin:round;stroke-miterlimit:10;" d="&#10;&#9;&#9;M155.894,309.354h-21.896c-6.235,0-11.29-5.055-11.29-11.29v-21.896c0-6.235,5.055-11.29,11.29-11.29h21.896&#10;&#9;&#9;c6.235,0,11.29,5.055,11.29,11.29v21.896C167.185,304.299,162.13,309.354,155.894,309.354z"></path>	<path style="fill:none;stroke:#000000;stroke-width:15;stroke-linecap:round;stroke-linejoin:round;stroke-miterlimit:10;" d="&#10;&#9;&#9;M233.096,309.354H211.2c-6.235,0-11.29-5.055-11.29-11.29v-21.896c0-6.235,5.055-11.29,11.29-11.29h21.896&#10;&#9;&#9;c6.235,0,11.29,5.055,11.29,11.29v21.896C244.386,304.299,239.331,309.354,233.096,309.354z"></path>	<path style="fill:none;stroke:#000000;stroke-width:15;stroke-linecap:round;stroke-linejoin:round;stroke-miterlimit:10;" d="&#10;&#9;&#9;M78.693,380.406H56.798c-6.235,0-11.29-5.055-11.29-11.29V347.22c0-6.235,5.055-11.29,11.29-11.29h21.896&#10;&#9;&#9;c6.235,0,11.29,5.055,11.29,11.29v21.896C89.984,375.351,84.929,380.406,78.693,380.406z"></path>	<path style="fill:none;stroke:#000000;stroke-width:15;stroke-linecap:round;stroke-linejoin:round;stroke-miterlimit:10;" d="&#10;&#9;&#9;M155.894,380.406h-21.896c-6.235,0-11.29-5.055-11.29-11.29V347.22c0-6.235,5.055-11.29,11.29-11.29h21.896&#10;&#9;&#9;c6.235,0,11.29,5.055,11.29,11.29v21.896C167.185,375.351,162.13,380.406,155.894,380.406z"></path>	<path style="fill:none;stroke:#000000;stroke-width:15;stroke-linecap:round;stroke-linejoin:round;stroke-miterlimit:10;" d="&#10;&#9;&#9;M233.096,380.406H211.2c-6.235,0-11.29-5.055-11.29-11.29V347.22c0-6.235,5.055-11.29,11.29-11.29h21.896&#10;&#9;&#9;c6.235,0,11.29,5.055,11.29,11.29v21.896C244.386,375.351,239.331,380.406,233.096,380.406z"></path>	<path style="fill:none;stroke:#000000;stroke-width:15;stroke-linecap:round;stroke-linejoin:round;stroke-miterlimit:10;" d="&#10;&#9;&#9;M438.154,485.513c35.892,0,65.107-28.505,66.289-64.109H7.557c1.182,35.604,30.398,64.109,66.289,64.109"></path>	<path style="fill:none;stroke:#000000;stroke-width:15;stroke-linecap:round;stroke-linejoin:round;stroke-miterlimit:10;" d="&#10;&#9;&#9;M93.498,114.086L93.498,114.086c-10.157,0-18.391-8.234-18.391-18.391V44.878c0-10.157,8.234-18.391,18.391-18.391h0&#10;&#9;&#9;c10.157,0,18.391,8.234,18.391,18.391v50.818C111.889,105.852,103.655,114.086,93.498,114.086z"></path>	<path style="fill:none;stroke:#000000;stroke-width:15;stroke-linecap:round;stroke-linejoin:round;stroke-miterlimit:10;" d="&#10;&#9;&#9;M171.374,114.086L171.374,114.086c-10.157,0-18.391-8.234-18.391-18.391V44.878c0-10.157,8.234-18.391,18.391-18.391h0&#10;&#9;&#9;c10.157,0,18.391,8.234,18.391,18.391v50.818C189.764,105.852,181.531,114.086,171.374,114.086z"></path>	<path style="fill:none;stroke:#000000;stroke-width:15;stroke-linecap:round;stroke-linejoin:round;stroke-miterlimit:10;" d="&#10;&#9;&#9;M340.626,114.086L340.626,114.086c-10.157,0-18.391-8.234-18.391-18.391V44.878c0-10.157,8.234-18.391,18.391-18.391h0&#10;&#9;&#9;c10.157,0,18.391,8.234,18.391,18.391v50.818C359.017,105.852,350.783,114.086,340.626,114.086z"></path>	<path style="fill:none;stroke:#000000;stroke-width:15;stroke-linecap:round;stroke-linejoin:round;stroke-miterlimit:10;" d="&#10;&#9;&#9;M418.502,114.086L418.502,114.086c-10.157,0-18.391-8.234-18.391-18.391V44.878c0-10.157,8.234-18.391,18.391-18.391h0&#10;&#9;&#9;c10.157,0,18.391,8.234,18.391,18.391v50.818C436.892,105.852,428.659,114.086,418.502,114.086z"></path></g></svg>