<svg xmlns="http://www.w3.org/2000/svg" xmlns:xlink="http://www.w3.org/1999/xlink" id="Capa_1" x="0px" y="0px" viewBox="0 0 511.442 511.442" style="enable-background:new 0 0 511.442 511.442;" xml:space="preserve" width="512" height="512"><g>	<path style="fill:none;stroke:#000000;stroke-width:14;stroke-linecap:round;stroke-linejoin:round;stroke-miterlimit:10;" d="&#10;&#9;&#9;M153.579,93.693V31.347C153.579,17.901,164.48,7,177.927,7h0.139c2.958,0,5.356,2.398,5.356,5.356v80.965"></path>	<path style="fill:none;stroke:#000000;stroke-width:14;stroke-linecap:round;stroke-linejoin:round;stroke-miterlimit:10;" d="&#10;&#9;&#9;M357.863,93.693V31.347C357.863,17.901,346.962,7,333.515,7h-0.139c-2.958,0-5.356,2.398-5.356,5.356v81.337"></path>	<path style="fill:none;stroke:#000000;stroke-width:14;stroke-linecap:round;stroke-linejoin:round;stroke-miterlimit:10;" d="&#10;&#9;&#9;M173.866,290.986v93.793h-13.083c-12.57,0-22.958-9.806-23.682-22.355l-7.263-125.868c-0.786-13.615,10.044-25.088,23.682-25.088&#10;&#9;&#9;h4.794"></path>	<path style="fill:none;stroke:#000000;stroke-width:14;stroke-linecap:round;stroke-linejoin:round;stroke-miterlimit:10;" d="&#10;&#9;&#9;M337.576,295.899v88.88h13.083c12.57,0,22.958-9.806,23.682-22.355l7.263-125.868c0.786-13.615-10.044-25.088-23.682-25.088h-6.091&#10;&#9;&#9;"></path>	<path style="fill:none;stroke:#000000;stroke-width:14;stroke-linecap:round;stroke-linejoin:round;stroke-miterlimit:10;" d="&#10;&#9;&#9;M337.576,384.779v70.589c0,27.103-21.971,49.074-49.074,49.074H222.94c-27.103,0-49.074-21.971-49.074-49.074v-70.589"></path>			<line style="fill:none;stroke:#000000;stroke-width:14;stroke-linecap:round;stroke-linejoin:round;stroke-miterlimit:10;" x1="211.904" y1="95.879" x2="211.904" y2="7"></line>			<line style="fill:none;stroke:#000000;stroke-width:14;stroke-linecap:round;stroke-linejoin:round;stroke-miterlimit:10;" x1="241.204" y1="95.879" x2="241.204" y2="7"></line>			<line style="fill:none;stroke:#000000;stroke-width:14;stroke-linecap:round;stroke-linejoin:round;stroke-miterlimit:10;" x1="270.504" y1="95.879" x2="270.504" y2="7"></line>			<line style="fill:none;stroke:#000000;stroke-width:14;stroke-linecap:round;stroke-linejoin:round;stroke-miterlimit:10;" x1="299.539" y1="95.879" x2="299.539" y2="7"></line>	<path style="fill:none;stroke:#000000;stroke-width:14;stroke-linecap:round;stroke-linejoin:round;stroke-miterlimit:10;" d="&#10;&#9;&#9;M215.695,160.746h-61.649c-11.293,0-20.448-9.155-20.448-20.448V105.61c0-5.374,4.357-9.731,9.731-9.731h224.785&#10;&#9;&#9;c5.374,0,9.731,4.356,9.731,9.731v34.688c0,11.293-9.155,20.448-20.448,20.448H250.695"></path>	<path style="fill:none;stroke:#000000;stroke-width:14;stroke-linecap:round;stroke-linejoin:round;stroke-miterlimit:10;" d="&#10;&#9;&#9;M351.831,164.697v87.674c0,32.819-26.605,59.424-59.424,59.424h-73.373c-32.819,0-59.424-26.605-59.424-59.424v-87.934"></path>	<path style="fill:none;stroke:#000000;stroke-width:14;stroke-linecap:round;stroke-linejoin:round;stroke-miterlimit:10;" d="&#10;&#9;&#9;M254.613,270.553L254.613,270.553c-12.262,0-22.202-9.94-22.202-22.202v-27.215c0-12.262,9.94-22.202,22.202-22.202h0&#10;&#9;&#9;c12.262,0,22.202,9.94,22.202,22.202v27.215C276.815,260.613,266.875,270.553,254.613,270.553z"></path>			<line style="fill:none;stroke:#000000;stroke-width:14;stroke-linecap:round;stroke-linejoin:round;stroke-miterlimit:10;" x1="231.729" y1="354.616" x2="279.714" y2="354.616"></line>			<line style="fill:none;stroke:#000000;stroke-width:14;stroke-linecap:round;stroke-linejoin:round;stroke-miterlimit:10;" x1="240.938" y1="384.779" x2="270.504" y2="384.779"></line>			<line style="fill:none;stroke:#000000;stroke-width:14;stroke-linecap:round;stroke-linejoin:round;stroke-miterlimit:10;" x1="252.315" y1="445.328" x2="337.576" y2="445.328"></line>			<line style="fill:none;stroke:#000000;stroke-width:14;stroke-linecap:round;stroke-linejoin:round;stroke-miterlimit:10;" x1="173.866" y1="445.328" x2="217.315" y2="445.328"></line></g></svg>