<svg xmlns="http://www.w3.org/2000/svg" id="Icons" height="512" viewBox="0 0 60 60" width="512"><path d="m43.3 39.342 6.325-4.215a7 7 0 1 0 -3.567-5.26l-2.065 1.271c.007-.785.007 3.828.007-14.806a7.712 7.712 0 0 0 5.981-6.686 1.641 1.641 0 0 0 -2.72-1.459 6.257 6.257 0 0 1 -3.961 1.813c-5.865 0-6.033-10-13.31-10a7.052 7.052 0 0 0 -4.646 1.453.569.569 0 0 1 -.687 0 7.057 7.057 0 0 0 -4.647-1.453c-7.266 0-7.452 10-13.31 10a6.255 6.255 0 0 1 -3.961-1.813 1.641 1.641 0 0 0 -2.72 1.458 7.712 7.712 0 0 0 5.991 6.689v14.556a11.77 11.77 0 0 0 3.508 8.452 62.859 62.859 0 0 0 9.11 7.405l-5.695 3.505a1.942 1.942 0 0 0 .382 3.492 7.859 7.859 0 0 0 5.4-.168l17.891-7.251 9.448 5.808a7 7 0 1 0 3.567-5.26c-7.551-5.032-6.652-4.133-7.346-5.873.295-.74.425-1.264 1.025-1.658zm-41.108-29.017a7.627 7.627 0 0 0 4.508 1.675c7.269 0 7.455-10 13.31-10a5.144 5.144 0 0 1 3.367.99 2.571 2.571 0 0 0 3.247 0 5.139 5.139 0 0 1 3.366-.99c5.863 0 6.03 10 13.31 10a7.627 7.627 0 0 0 4.511-1.675c-.647 2.446-2.6 4.675-9.5 4.675-7.24 0-10.436-2.684-11.7-4.284a2.046 2.046 0 0 0 -3.22 0c-1.262 1.6-4.458 4.284-11.698 4.284-6.893 0-8.853-2.229-9.501-4.675zm35.808 6.667c-.813 2.151-2.686 5.617-6.448 6.2a1.524 1.524 0 0 1 -1.558-.82l-.364-.722a2.971 2.971 0 0 0 -2.65-1.65h-3.95a2.978 2.978 0 0 0 -2.644 1.633l-.37.74a1.531 1.531 0 0 1 -1.543.818c-3.773-.581-5.648-4.048-6.461-6.2 7.857-.084 11.485-3.179 13.028-5.038 1.465 1.861 5.094 4.958 12.96 5.039zm-27.078 20.926a9.786 9.786 0 0 1 -2.912-7.028v-14.125c.626.091 1.253.15 1.869.186.773 2.373 3.014 7.4 8.3 8.219a3.5 3.5 0 0 0 3.625-1.9l.37-.741a.963.963 0 0 1 .856-.529h3.95a.962.962 0 0 1 .858.541l.367.727a3.5 3.5 0 0 0 3.638 1.9c5.276-.814 7.515-5.845 8.288-8.218.616-.036 1.243-.095 1.869-.187 0 15.705.047 14.53-.13 15.678l-21.359 13.147a60.774 60.774 0 0 1 -9.589-7.67zm3.057 14.037c-.681-1.109-.714-1.162 0 0zm3.989-.233a6.133 6.133 0 0 1 -3.93.2l33.647-20.711a1 1 0 0 0 .446-1.094 4.485 4.485 0 0 1 -.13-1.05 5 5 0 1 1 5.687 4.887 4.927 4.927 0 0 1 -3.52-.838 1 1 0 0 0 -1.123-.009l-6.858 4.57a3.893 3.893 0 0 0 -1.445 1.769l-1.16 2.89a1.874 1.874 0 0 1 -1.018 1.037zm31.077-2.83a1 1 0 0 0 1.121-.008 5 5 0 1 1 -2.166 4.053 4.827 4.827 0 0 1 .132-1.06 1 1 0 0 0 -.448-1.09l-8.777-5.395.419-.169a3.854 3.854 0 0 0 1.928-1.789c.582.766.446.566 7.791 5.458z"></path><path d="m53 32a3 3 0 1 0 -3-3 3 3 0 0 0 3 3zm0-4a1 1 0 1 1 -1 1 1 1 0 0 1 1-1z"></path><path d="m53 56a3 3 0 1 0 -3-3 3 3 0 0 0 3 3zm0-4a1 1 0 1 1 -1 1 1 1 0 0 1 1-1z"></path><circle cx="37" cy="41" r="1"></circle></svg>