<svg xmlns="http://www.w3.org/2000/svg" xmlns:xlink="http://www.w3.org/1999/xlink" xmlns:svgjs="http://svgjs.com/svgjs" width="512" height="512" x="0" y="0" viewBox="0 0 53 60" style="enable-background:new 0 0 512 512" xml:space="preserve" class=""><g><g id="Page-1" fill="none" fill-rule="evenodd"><g id="028---Shaving-Cream" fill="rgb(0,0,0)" fill-rule="nonzero"><path id="Shape" d="m5 11c-.01393517 2.5704734 1.92342402 4.7327046 4.48 5l7.3 13.86c-1.5215914 1.6721132-2.3134255 3.8820502-2.2 6.14.0822661 1.3521819.4942537 2.6636757 1.2 3.82.7665708 1.1810685 1.1890237 2.552309 1.22 3.96v1.44c-.035342 1.3930485-.4540106 2.7493962-1.21 3.92-2.0909027 3.4411009-1.4493816 7.8814331 1.53 10.59.1844231.1726652.4273651.2691275.68.27h16c.2526349-.0008725.4955769-.0973348.68-.27 1.870949-1.7226886 2.8756223-4.1903716 2.74-6.73-.0810557-1.3524051-.4931331-2.6641848-1.2-3.82-.7665708-1.1810685-1.1890237-2.552309-1.22-3.96v-1.44c.035342-1.3930485.4540106-2.7493962 1.21-3.92 1.9241782-3.1855796 1.5168836-7.2585266-1-10l5.79-10.95c-.0918772 1.477101-.3161096 2.9429786-.67 4.38-.1658265.5577951-.2763592 1.1305551-.33 1.71 0 2.209139 1.790861 4 4 4 .2685676-.0018559.5363831-.0286374.8-.08 1.6403114-.3095076 2.9159593-1.6050874 3.2-3.25.1115573-.8827817-.0234269-1.7792148-.39-2.59-.3938936-.8989991-.6014078-1.8685329-.61-2.85v-.64c-.2191226-2.2397541.4088105-4.4803334 1.76-6.28 1.5558354-2.0871932 1.6826071-4.9118248.32-7.13-1.3186454-2.26206547-3.8788845-3.49667845-6.47-3.12-.5923596-1.40945177-1.7970112-2.47042935-3.27-2.88-1.4733824-.40612193-3.051858-.10299547-4.27.82-5.2825272-1.13903035-10.7289069-1.30171001-16.07-.48-1.6654012-.93511457-3.759568-.56235289-5 .89-1.7061195-.73228503-3.6775223-.45890691-5.12.71-1.44904867 1.14087228-2.12378984 3.00610506-1.74 4.81-1.33186266.92872076-2.1298238 2.44633845-2.14 4.07zm35.61 4.31-7.21 13.69h-2.3l4-13.24c1.3254582-.3245011 2.5108443-1.0679978 3.38-2.12.4294336.5328845.9428268.9922363 1.52 1.36.1972708.1148529.4009353.2183545.61.31zm-11.61 13.69h-2v-11.22c1.4110205-.3921854 2.6043131-1.3367251 3.31-2.62.8204472.4824425 1.7408097.769842 2.69.84zm-4 0h-2l-3.73-12.26c.6689579-.189368 1.3011663-.4902586 1.87-.89.9211776 1.234347 2.3255991 2.0166026 3.86 2.15zm-7.75-12 3.65 12h-2.3l-7-13.29c.4462892-.1515323.8650563-.3744245 1.24-.66 1.1662129 1.1905141 2.7445912 1.8884365 4.41 1.95zm17.25 21.82c-.9575726 1.4936757-1.4772345 3.2258822-1.5 5v1.44c.0227655 1.7741178.5424274 3.5063243 1.5 5 .3322548.5397501.5816949 1.1262713.74 1.74h-12.24c-.5522847 0-1 .4477153-1 1s.4477153 1 1 1h12.4c-.1267964 1.5014402-.7658309 2.913671-1.81 4h-15.18c-2.0535378-2.0929995-2.4280553-5.3113803-.91-7.82.9575726-1.4936757 1.4772345-3.2258822 1.5-5v-1.4c-.0227655-1.7741178-.5424274-3.5063243-1.5-5-.3359543-.5521458-.5855048-1.1524161-.74-1.78h12.24c.5522847 0 1-.4477153 1-1s-.4477153-1-1-1h-12.4c.1267964-1.5014402.7658309-2.913671 1.81-4h15.18c2.0535378 2.0929995 2.4280553 5.3113803.91 7.82zm-26.24-30.26c.64628385-.443781.96194279-1.23292835.8-2-.21056181-1.08905109.19697801-2.2054145 1.0596495-2.90267085.8626715-.69725635 2.0396783-.86160658 3.0603505-.42732915.8094357.34076393 1.7464716.11360369 2.31-.56.6308448-.71953576 1.6829864-.89139952 2.51-.41.3980117.23304245.8643361.32136146 1.32.25 5.0710425-.81055807 10.2483484-.67493775 15.27.4.5810023.13855726 1.1935244.01018435 1.67-.35.7381744-.52799437 1.6756904-.69343837 2.55-.45.8985721.23588731 1.6371617.87476728 2 1.73.3613236.79843298 1.2003733 1.26862509 2.07 1.16 1.7960821-.2576636 3.5687269.60096125 4.48 2.17.941857 1.53366582.8547201 3.4863234-.22 4.93-1.6206803 2.1509773-2.3834586 4.82783-2.14 7.51v.62c-.0061042 1.2097896.2249151 2.4090514.68 3.53.2595071.4874291.3707427 1.0401307.32 1.59-.1311765.829194-.7662313 1.4882131-1.59 1.65-.5969237.1251689-1.2183387-.0288787-1.6876785-.4183724-.4693399-.3894936-.7353037-.9718599-.7223215-1.5816276.0568297-.4248268.1403279-.8456578.25-1.26.4516079-1.762803.7031942-3.5708702.75-5.39v-1.69c0-1.62 0-1.72-.21-2.13-.35-.63-1.17-.88-1.69-1.22-.3764939-.2561596-.7134082-.5661207-1-.92-.3708824-.458571-.9302299-.7235251-1.52-.72-.5948645-.0009661-1.159287.2629198-1.54.72-1.4117367 1.6616698-3.8069386 2.0818807-5.7 1-.468157-.2741306-1.0275918-.3463157-1.55-.2-.4827785.1360418-.8880115.4652936-1.12.91-.5506415 1.0598351-1.605009 1.7644901-2.7948701 1.8678682-1.189861.103378-2.3499568-.4088791-3.0751299-1.3578682-.643539-.8145273-1.8032751-1.0013012-2.67-.43-1.8074338 1.233612-4.2376675 1.0023614-5.78-.55-.6866635-.6702545-1.7525832-.7583817-2.54-.21-.9119558.6900084-2.13687829.8015307-3.15844975.2875592-1.02157145-.5139715-1.66208221-1.5640278-1.65155025-2.7075592.00124407-.9691046.47055024-1.87791969 1.26-2.44z" fill="#ec8c08" data-original="#000000" class=""></path><path id="Shape" d="m0 21c0 2.209139 1.790861 4 4 4s4-1.790861 4-4-1.790861-4-4-4-4 1.790861-4 4zm6 0c0 1.1045695-.8954305 2-2 2s-2-.8954305-2-2 .8954305-2 2-2 2 .8954305 2 2z" fill="#ec8c08" data-original="#000000" class=""></path><path id="Shape" d="m5 29c0 1.6568542 1.34314575 3 3 3s3-1.3431458 3-3-1.34314575-3-3-3-3 1.3431458-3 3zm4 0c0 .5522847-.44771525 1-1 1s-1-.4477153-1-1 .44771525-1 1-1 1 .4477153 1 1z" fill="#ec8c08" data-original="#000000" class=""></path><path id="Shape" d="m47 32c0 1.6568542 1.3431458 3 3 3s3-1.3431458 3-3-1.3431458-3-3-3-3 1.3431458-3 3zm3-1c.5522847 0 1 .4477153 1 1s-.4477153 1-1 1-1-.4477153-1-1 .4477153-1 1-1z" fill="#ec8c08" data-original="#000000" class=""></path></g></g></g></svg>