<svg xmlns="http://www.w3.org/2000/svg" height="512" viewBox="0 0 64 64" width="512"><g id="Layer_38" data-name="Layer 38"><path d="m16.79 42.32a6.79 6.79 0 1 0 4.8 2 6.73 6.73 0 0 0 -4.8-2zm3.39 10.17a4.79 4.79 0 1 1 0-6.77 4.8 4.8 0 0 1 0 6.77z"></path><path d="m47.21 42.32a6.79 6.79 0 1 0 4.79 2 6.74 6.74 0 0 0 -4.79-2zm3.38 10.17a4.79 4.79 0 1 1 0-6.77 4.79 4.79 0 0 1 0 6.77z"></path><path d="m43.74 37.74-3.84-3.84 16.22-16.21a10.19 10.19 0 0 0 0-14.4 1 1 0 0 0 -1.42 0l-22.7 22.71-22.71-22.71a1 1 0 0 0 -1.41 0 10.18 10.18 0 0 0 0 14.39l16.22 16.22-3.83 3.84a11.9 11.9 0 1 0 7.89 7.9l3.84-3.84 3.84 3.84a11.89 11.89 0 1 0 7.9-7.9zm11.63-32.28a8 8 0 0 1 1.73 5 8 8 0 0 1 -2.4 5.78l-16.21 16.25-5.07-5.07zm-29.06 39.2a1.07 1.07 0 0 0 -.21 1.09 9.9 9.9 0 1 1 -5.91-5.93 1.11 1.11 0 0 0 1.06-.23l4.26-4.28 5.08 5.08zm27.89 11.44a9.89 9.89 0 0 1 -16.29-10.39 1.06 1.06 0 0 0 -.23-1.05l-28.39-28.39a8.07 8.07 0 0 1 -2.39-5.79 8 8 0 0 1 1.73-5l34.13 34.1a1.09 1.09 0 0 0 1.05.24 9.89 9.89 0 0 1 10.39 16.28z"></path><path d="m32 31a2.87 2.87 0 1 0 2.87 2.87 2.88 2.88 0 0 0 -2.87-2.87zm0 3.74a.87.87 0 1 1 .87-.87.87.87 0 0 1 -.87.9z"></path></g></svg>