<svg xmlns="http://www.w3.org/2000/svg" height="512" viewBox="0 0 60 48" width="512"><g id="Page-1" fill="none" fill-rule="evenodd"><g id="030---Hair-Combs" fill="rgb(0,0,0)" fill-rule="nonzero"><path id="Shape" d="m7 32h3.07c.4971969 3.4446823 3.4496207 6.0008933 6.93 6 .7445998-.0015673 1.4840808-.1231258 2.19-.36.1151001.3045292.2486819.6017486.4.89 1.6801911 3.0474493 5.3438928 4.3979068 8.6 3.17l1.49 2.68c.8964138 1.6257956 2.4019675 2.8288953 4.1854457 3.3446224 1.7834782.5157272 3.6987825.3018345 5.3245543-.5946224l19.26-10.63c.6981642-.3839388 1.2149178-1.02984 1.4362839-1.7952414.2213661-.7654015.129159-1.5874236-.2562839-2.2847586l-.49-.88c-.531676-.9646493-1.7432449-1.3178373-2.71-.79l-7 3.88-1-1.76 7.88-4.35c.4775426-.2674413.6513549-.8690995.39-1.35-.1268369-.2338677-.3416385-.4075519-.596876-.4826217-.2552375-.0750699-.5298679-.0453363-.763124.0826217l-7.88 4.35-1-1.75 7.94-4.37c.4832492-.2761424.6511424-.8917508.375-1.375s-.8917508-.6511424-1.375-.375l-7.88 4.35-1-1.75 7.88-4.35c.4832492-.2761424.6511424-.8917508.375-1.375s-.8917508-.6511424-1.375-.375l-7.87 4.35-1-1.75 8.01-4.35c.3126074-.1786328.5061691-.5104704.5077723-.8705127.0016031-.3600424-.1889958-.6935905-.5000001-.875-.3110042-.1814096-.6951648-.1831201-1.0077722-.0044873l-7.88 4.35-1-1.75 7.87-4.35c.4832492-.2761424.6511424-.8917508.375-1.375s-.8917508-.6511424-1.375-.375l-7.88 4.35-1-1.75 7-3.87c.9646493-.531676 1.3178373-1.74324493.79-2.71l-.48-.88c-.8022737-1.37721877-2.5414356-1.88667021-3.96-1.16l-8 4.43v-8.16c0-1.65685425-1.3431458-3-3-3h-1c-1.1045695 0-2 .8954305-2 2v8h-2v-9c0-.55228475-.4477153-1-1-1s-1 .44771525-1 1v9h-2v-9c0-.55228475-.4477153-1-1-1s-1 .44771525-1 1v9h-2v-9c0-.55228475-.4477153-1-1-1s-1 .44771525-1 1v9h-2v-9c0-.55228475-.4477153-1-1-1s-1 .44771525-1 1v9h-2v-9c0-.55228475-.44771525-1-1-1s-1 .44771525-1 1v9h-2v-8c0-1.1045695-.8954305-2-2-2h-1c-1.65685425 0-3 1.34314575-3 3v22c0 3.8659932 3.13400675 7 7 7zm36-23.52c.2274801-.13139829.4999218-.16045873.75-.08.2542022.07131871.4698859.24027091.6.47l.49.88-7 3.87c-.4719775.2467493-.8260456.6715568-.9837265 1.1802656-.157681.5087088-.1059502 1.059299.1437265 1.5297344l9.22 16.67 1.45 2.62c.2479106.4822154.6809846.8431104 1.2 1 .5091788.1469569 1.0558679.085814 1.52-.17l7-3.87.48.87c.269731.4805947.0997834 1.0888284-.38 1.36l-19.26 10.56c-1.1601999.643727-2.5286874.7999162-3.804101.4341726s-2.3531584-1.223426-2.995899-2.3841726l-1.93-3.5c-.1268369-.2338677-.3416385-.4075519-.596876-.4826217-.2552375-.0750699-.5298679-.0453363-.763124.0826217-1.1662807.6397898-2.5394326.7884578-3.8156202.4131085-1.2761875-.3753492-2.3501955-1.2437702-2.9843798-2.4131085-.1370624-.2676163-.2540511-.5450467-.35-.83 1.5827401-1.0930079 2.6459841-2.7891352 2.94-4.69h3.07c.8371634-.0005678 1.6672764-.1530376 2.45-.45l5.48 9.93c.1758972.3214804.5135461.5210002.88.52.1675258.0008382.3325776-.0404248.48-.12.2321493-.1285481.4036858-.3440971.4768345-.5991798s.0419109-.5287802-.0868345-.7608202l-5.48-9.93c1.7598286-1.3198679 2.7968558-3.3902187 2.8-5.59v-11.56zm-41-5.48c0-.55228475.44771525-1 1-1h1v8c0 1.1045695.8954305 2 2 2h22c1.1045695 0 2-.8954305 2-2v-8h1c.5522847 0 1 .44771525 1 1v22c0 2.7614237-2.2385763 5-5 5h-4c-.5522847 0-1 .4477153-1 1 0 2.7614237-2.2385763 5-5 5s-5-2.2385763-5-5c0-.5522847-.4477153-1-1-1h-4c-2.76142375 0-5-2.2385763-5-5z"></path><path id="Shape" d="m7 26h20c.5522847 0 1-.4477153 1-1s-.4477153-1-1-1h-20c-.55228475 0-1 .4477153-1 1s.44771525 1 1 1z"></path></g></g></svg>