<svg xmlns="http://www.w3.org/2000/svg" xmlns:svg="http://www.w3.org/2000/svg" id="svg471" xml:space="preserve" width="682.66669" height="682.66669" viewBox="0 0 682.66669 682.66669"><defs id="defs475"><clipPath clipPathUnits="userSpaceOnUse" id="clipPath485"><path d="M 0,512 H 512 V 0 H 0 Z" id="path483"></path></clipPath><clipPath clipPathUnits="userSpaceOnUse" id="clipPath517"><path d="M 0,512 H 512 V 0 H 0 Z" id="path515"></path></clipPath><clipPath clipPathUnits="userSpaceOnUse" id="clipPath541"><path d="M 0,512 H 512 V 0 H 0 Z" id="path539"></path></clipPath></defs><g id="g477" transform="matrix(1.3333333,0,0,-1.3333333,0,682.66667)"><g id="g479"><g id="g481" clip-path="url(#clipPath485)"><g id="g487" transform="translate(334.7944,483.2869)"><path d="M 0,0 H 21.213 V -21.213 L -31.82,-74.246" style="fill:none;stroke:#000000;stroke-width:15;stroke-linecap:round;stroke-linejoin:round;stroke-miterlimit:10;stroke-dasharray:none;stroke-opacity:1" id="path489"></path></g></g></g><g id="g491" transform="translate(356.0076,462.0737)"><path d="M 0,0 H 21.213 V -21.213 L -31.82,-74.246" style="fill:none;stroke:#000000;stroke-width:15;stroke-linecap:round;stroke-linejoin:round;stroke-miterlimit:10;stroke-dasharray:none;stroke-opacity:1" id="path493"></path></g><g id="g495" transform="translate(377.2208,440.8604)"><path d="M 0,0 H 21.213 V -21.213 L -31.82,-74.246" style="fill:none;stroke:#000000;stroke-width:15;stroke-linecap:round;stroke-linejoin:round;stroke-miterlimit:10;stroke-dasharray:none;stroke-opacity:1" id="path497"></path></g><g id="g499" transform="translate(398.4341,419.6472)"><path d="M 0,0 H 21.213 V -21.213 L -31.82,-74.246" style="fill:none;stroke:#000000;stroke-width:15;stroke-linecap:round;stroke-linejoin:round;stroke-miterlimit:10;stroke-dasharray:none;stroke-opacity:1" id="path501"></path></g><g id="g503" transform="translate(419.6472,398.4341)"><path d="M 0,0 H 21.213 V -21.213 L -31.82,-74.246" style="fill:none;stroke:#000000;stroke-width:15;stroke-linecap:round;stroke-linejoin:round;stroke-miterlimit:10;stroke-dasharray:none;stroke-opacity:1" id="path505"></path></g><g id="g507" transform="translate(440.8604,377.2209)"><path d="M 0,0 H 21.213 V -21.213 L -31.82,-74.246" style="fill:none;stroke:#000000;stroke-width:15;stroke-linecap:round;stroke-linejoin:round;stroke-miterlimit:10;stroke-dasharray:none;stroke-opacity:1" id="path509"></path></g><g id="g511"><g id="g513" clip-path="url(#clipPath517)"><g id="g519" transform="translate(462.0736,356.0076)"><path d="M 0,0 H 21.213 V -21.213" style="fill:none;stroke:#000000;stroke-width:15;stroke-linecap:round;stroke-linejoin:round;stroke-miterlimit:10;stroke-dasharray:none;stroke-opacity:1" id="path521"></path></g></g></g><g id="g523" transform="translate(451.467,260.5482)"><path d="M 0,0 -190.919,190.919" style="fill:none;stroke:#000000;stroke-width:15;stroke-linecap:round;stroke-linejoin:round;stroke-miterlimit:10;stroke-dasharray:none;stroke-opacity:1" id="path525"></path></g><g id="g527" transform="translate(271.155,377.2206)"><path d="M 0,0 -21.213,21.213" style="fill:none;stroke:#000000;stroke-width:15;stroke-linecap:round;stroke-linejoin:round;stroke-miterlimit:10;stroke-dasharray:none;stroke-opacity:1" id="path529"></path></g><g id="g531" transform="translate(398.4341,249.9416)"><path d="M 0,0 -106.066,106.066" style="fill:none;stroke:#000000;stroke-width:15;stroke-linecap:round;stroke-linejoin:round;stroke-miterlimit:10;stroke-dasharray:none;stroke-opacity:1" id="path533"></path></g><g id="g535"><g id="g537" clip-path="url(#clipPath541)"><g id="g543" transform="translate(239.3353,218.1216)"><path d="m 0,0 c 5.848,5.848 5.848,15.365 0,21.213 -5.848,5.849 -15.365,5.849 -21.213,0" style="fill:none;stroke:#000000;stroke-width:15;stroke-linecap:round;stroke-linejoin:round;stroke-miterlimit:10;stroke-dasharray:none;stroke-opacity:1" id="path545"></path></g><g id="g547" transform="translate(186.3023,186.3018)"><path d="m 0,0 c -17.545,17.545 -17.545,46.094 0,63.64 l 53.033,53.033 c 17.545,17.545 46.094,17.545 63.64,0 17.545,-17.546 17.545,-46.095 0,-63.64 L 63.64,0 C 46.094,-17.545 17.545,-17.545 0,0 Z" style="fill:none;stroke:#000000;stroke-width:15;stroke-linecap:round;stroke-linejoin:round;stroke-miterlimit:10;stroke-dasharray:none;stroke-opacity:1" id="path549"></path></g><g id="g551" transform="translate(281.7617,281.7612)"><path d="m 0,0 c -5.848,5.848 -15.365,5.848 -21.213,0 l -53.033,-53.033 c -5.849,-5.848 -5.849,-15.365 0,-21.213 5.848,-5.849 15.365,-5.849 21.213,0 L 0,-21.213 C 5.848,-15.365 5.848,-5.848 0,0 Z" style="fill:none;stroke:#000000;stroke-width:15;stroke-linecap:round;stroke-linejoin:round;stroke-miterlimit:10;stroke-dasharray:none;stroke-opacity:1" id="path553"></path></g><g id="g555" transform="translate(218.122,366.614)"><path d="m 0,0 -10.607,10.607 c -5.833,5.833 -5.833,15.379 0,21.213 L 95.459,137.886 h 21.213 V 116.673 L -74.247,-74.246 c -16.818,-16.818 -26.528,-37.997 -29.719,-59.894 -1.33,-9.127 -5.629,-17.881 -12.658,-24.91 l -72.031,-72.031 c -29.289,-29.289 -29.289,-76.777 0,-106.066 29.289,-29.289 76.777,-29.289 106.066,0 l 72.031,72.031 c 7.029,7.029 15.783,11.328 24.91,12.658 21.897,3.191 43.076,12.901 59.894,29.719 L 265.165,-31.82 h 21.213 V -53.033 L 180.312,-159.099 c -5.834,-5.833 -15.38,-5.833 -21.213,0 l -10.559,10.559" style="fill:none;stroke:#000000;stroke-width:15;stroke-linecap:round;stroke-linejoin:round;stroke-miterlimit:10;stroke-dasharray:none;stroke-opacity:1" id="path557"></path></g></g></g></g></svg>