<svg xmlns="http://www.w3.org/2000/svg" xmlns:xlink="http://www.w3.org/1999/xlink" id="Capa_1" x="0px" y="0px" viewBox="0 0 512 512" style="enable-background:new 0 0 512 512;" xml:space="preserve"><g>	<g>		<path d="M388.526,387.403h-4.494v-94.696c0-4.142-3.357-7.5-7.5-7.5s-7.5,3.358-7.5,7.5c0,32.436-31.263,64.524-63.939,94.689   h-74.53c12.978-26.948,42.314-53.65,70.8-79.566c25.64-23.326,51.827-47.154,67.669-72.421v29.644   c-0.001,4.142,3.357,7.5,7.499,7.5c4.143,0,7.5-3.358,7.5-7.5V124.597h4.494c15.517,0,28.141-12.624,28.141-28.141V85.254   c0-7.884-6.414-14.299-14.299-14.299h-11.913c-5.495-19.121-16.823-36.358-32.37-49.012C340.7,7.793,318.759,0,296.304,0   c-13.91,0-27.354,2.859-39.955,8.497c-26.391,11.808-46.3,34.885-54.215,62.459h-11.894c-7.885,0-14.299,6.415-14.299,14.299   v11.202c0,4.744,1.185,9.215,3.267,13.141h-25.309v-3.06c0-16.147-13.137-29.283-29.283-29.283   c-16.146,0-29.282,13.135-29.282,29.282v18.237c0,4.142,3.357,7.5,7.5,7.5s7.5-3.358,7.5-7.5v-18.237   c0-7.876,6.407-14.283,14.282-14.283c7.876,0,14.283,6.407,14.283,14.283v298.926c0,7.876-6.407,14.283-14.283,14.283   c-7.875,0-14.282-6.407-14.282-14.283V154.774c0-4.142-3.357-7.5-7.5-7.5c-4.143,0-7.5,3.358-7.5,7.5v250.689   c0,16.147,13.136,29.283,29.282,29.283s29.283-13.136,29.283-29.283v-3.06h25.309c-2.082,3.925-3.267,8.396-3.267,13.141v11.202   c0,7.884,6.414,14.299,14.299,14.299h11.913c5.495,19.121,16.823,36.358,32.37,49.012C251.906,504.207,273.849,512,296.304,512   c22.455,0,44.396-7.793,61.781-21.943c15.546-12.655,26.875-29.891,32.37-49.012h11.913c7.885,0,14.299-6.415,14.299-14.299   v-11.202C416.667,400.027,404.043,387.403,388.526,387.403z M369.031,338.966v48.43h-42.009   C343.617,371.52,358.596,355.554,369.031,338.966z M369.032,189.394c-0.001,36.596-39.533,72.56-77.763,107.341   c-25.592,23.282-51.851,47.17-67.692,72.396v-54.224c0-36.595,39.531-72.559,77.762-107.338   c25.574-23.267,51.874-47.191,67.693-72.374V189.394z M262.474,22.189c10.663-4.77,22.045-7.189,33.83-7.189   c19.017,0,37.595,6.597,52.312,18.577c12.045,9.804,21.115,22.843,26.137,37.379H217.854   C225.278,49.441,241.449,31.596,262.474,22.189z M190.94,85.956h210.725v10.501c0,7.246-5.895,13.141-13.141,13.141H204.082   c-7.246,0-13.141-5.895-13.141-13.141V85.956z M257.671,124.604c-12.796,12.705-25.035,26.309-34.095,40.778v-40.778H257.671z    M153.898,387.403V124.597h54.677V226c0,4.142,3.357,7.5,7.5,7.5s7.5-3.358,7.5-7.5v-14.406c0-13.699,5.424-28.084,16.583-43.978   c10.911-15.54,26.334-30.942,39.105-43.013h78.662c-14.402,24.306-40.925,48.436-66.683,71.87   c-25.64,23.326-51.825,47.153-67.667,72.418V256c0-4.142-3.357-7.5-7.5-7.5s-7.5,3.358-7.5,7.5v131.403H153.898z M348.615,478.423   C333.898,490.403,315.32,497,296.304,497c-19.016,0-37.595-6.597-52.312-18.577c-12.045-9.804-21.115-22.843-26.137-37.379H374.75   C369.73,455.58,360.66,468.62,348.615,478.423z M401.666,426.045H190.94v-10.501c0-7.246,5.895-13.141,13.141-13.141h184.443   c7.246,0,13.141,5.895,13.141,13.141V426.045z"></path>	</g></g><g></g><g></g><g></g><g></g><g></g><g></g><g></g><g></g><g></g><g></g><g></g><g></g><g></g><g></g><g></g></svg>